<svg xmlns="http://www.w3.org/2000/svg" viewBox="0 0 33.2 27">
    <defs>
        <style>
            .cls-1{fill:#a6a5a5}
        </style>
    </defs>
    <g id="Calque_2" data-name="Calque 2">
        <g id="Logo">
            <path id="logo_-_Twitter" d="M30.1 4.1l2-4.1L29 2.1l-.6.3A6.4 6.4 0 0 0 23.3 0c-3.7 0-6.7 2.5-6.7 6.2a6.8 6.8 0 0 0 .2 2h-.2S3.1 6.2 2.1 1a7.3 7.3 0 0 0 2 9.4s-2 1-3.1 0 0 3.1 5.2 6.2c0 0-2.1 1-3.1 0s4.2 4.1 6.2 4.1c0 0 0 3.1-9.3 3.1 0 0 11.8 7.8 22.8-1a18 18 0 0 0 7-14.4 5.1 5.1 0 0 0 .3-1.7v-.5l3.1-3.1z" class="cls-1" data-name="logo - Twitter"/>
        </g>
    </g>
</svg>
